# xmcd CD database file
#
# Track frame offsets:
#	150
#	25020
#	48732
#	68832
#	88672
#	114175
#	135167
#	155937
#
# Disc length: 2354 seconds
#
# Revision: 0
# Processed by: cddbd v1.5.2PL0 Copyright (c) Steve Scherf et al.
# Submitted via: CDex 1.70beta2
#
DISCID=62093008
DTITLE=Alex Leon - Aqui De Nuevo
DYEAR=1900
DGENRE=Salsa
TTITLE0=La Mujer Que Tengo
TTITLE1=Dajala
TTITLE2=Rumba Rumba
TTITLE3=Corazón De Piedra
TTITLE4=Meneate
TTITLE5=Yo Llegare
TTITLE6=Quien Te Puso Asi
TTITLE7=Ven Rumbero
EXTD=
EXTT0=
EXTT1=
EXTT2=
EXTT3=
EXTT4=
EXTT5=
EXTT6=
EXTT7=
PLAYORDER=
